<mxfile host="Electron" modified="2023-05-25T08:51:07.642Z" agent="Mozilla/5.0 (Windows NT 10.0; Win64; x64) AppleWebKit/537.36 (KHTML, like Gecko) draw.io/21.2.8 Chrome/112.0.5615.165 Electron/24.2.0 Safari/537.36" etag="6XcZUwq9bSFApphpmamS" version="21.2.8" type="device">
  <diagram name="페이지-1" id="jwlogUS8V5inGkHQzCs6">
    <mxGraphModel dx="2205" dy="614" grid="1" gridSize="10" guides="1" tooltips="1" connect="1" arrows="1" fold="1" page="1" pageScale="1" pageWidth="1169" pageHeight="827" background="#ffffff" math="0" shadow="0">
      <root>
        <mxCell id="0" />
        <mxCell id="1" parent="0" />
        <mxCell id="o_C5GEEgWJ_29PUXvW90-57" value="ROLE_ADMIN" style="rounded=0;whiteSpace=wrap;html=1;fillColor=#f8cecc;strokeColor=#b85450;" parent="1" vertex="1">
          <mxGeometry x="660" y="490" width="200" height="120" as="geometry" />
        </mxCell>
        <mxCell id="o_C5GEEgWJ_29PUXvW90-56" value="" style="rounded=0;whiteSpace=wrap;html=1;fillColor=#fff2cc;strokeColor=#d6b656;" parent="1" vertex="1">
          <mxGeometry x="680" y="520" width="160" height="80" as="geometry" />
        </mxCell>
        <mxCell id="o_C5GEEgWJ_29PUXvW90-47" value="" style="verticalLabelPosition=bottom;verticalAlign=top;html=1;shape=mxgraph.basic.patternFillRect;fillStyle=diag;step=5;fillStrokeWidth=0.2;fillStrokeColor=#dddddd;" parent="1" vertex="1">
          <mxGeometry x="350" y="280" width="520" height="120" as="geometry" />
        </mxCell>
        <mxCell id="o_C5GEEgWJ_29PUXvW90-46" value="" style="verticalLabelPosition=bottom;verticalAlign=top;html=1;shape=mxgraph.basic.patternFillRect;fillStyle=diag;step=5;fillStrokeWidth=0.2;fillStrokeColor=#dddddd;" parent="1" vertex="1">
          <mxGeometry x="60" y="420" width="360" height="200" as="geometry" />
        </mxCell>
        <mxCell id="VTdqCkY_t20LeBBKGg7Y-31" value="" style="verticalLabelPosition=bottom;verticalAlign=top;html=1;shape=mxgraph.basic.patternFillRect;fillStyle=diag;step=5;fillStrokeWidth=0.2;fillStrokeColor=#dddddd;" parent="1" vertex="1">
          <mxGeometry x="-540" y="170" width="590" height="330" as="geometry" />
        </mxCell>
        <mxCell id="VTdqCkY_t20LeBBKGg7Y-1" value="Get" style="rounded=0;whiteSpace=wrap;html=1;fillColor=#f5f5f5;fontColor=#333333;strokeColor=#666666;" parent="1" vertex="1">
          <mxGeometry x="500" y="490" width="120" height="60" as="geometry" />
        </mxCell>
        <mxCell id="VTdqCkY_t20LeBBKGg7Y-2" value="Post" style="rounded=1;whiteSpace=wrap;html=1;fillColor=#dae8fc;strokeColor=#6c8ebf;" parent="1" vertex="1">
          <mxGeometry x="500" y="550" width="120" height="60" as="geometry" />
        </mxCell>
        <mxCell id="o_C5GEEgWJ_29PUXvW90-8" style="edgeStyle=orthogonalEdgeStyle;rounded=0;orthogonalLoop=1;jettySize=auto;html=1;entryX=0.5;entryY=1;entryDx=0;entryDy=0;" parent="1" source="VTdqCkY_t20LeBBKGg7Y-5" target="o_C5GEEgWJ_29PUXvW90-7" edge="1">
          <mxGeometry relative="1" as="geometry" />
        </mxCell>
        <mxCell id="VTdqCkY_t20LeBBKGg7Y-5" value="/login" style="rounded=0;whiteSpace=wrap;html=1;fillColor=#f5f5f5;fontColor=#333333;strokeColor=#666666;" parent="1" vertex="1">
          <mxGeometry x="95" y="170" width="120" height="60" as="geometry" />
        </mxCell>
        <mxCell id="o_C5GEEgWJ_29PUXvW90-39" style="edgeStyle=orthogonalEdgeStyle;rounded=0;orthogonalLoop=1;jettySize=auto;html=1;entryX=1;entryY=0.5;entryDx=0;entryDy=0;" parent="1" source="VTdqCkY_t20LeBBKGg7Y-49" target="VTdqCkY_t20LeBBKGg7Y-5" edge="1">
          <mxGeometry relative="1" as="geometry" />
        </mxCell>
        <mxCell id="VTdqCkY_t20LeBBKGg7Y-49" value="/register" style="rounded=1;whiteSpace=wrap;html=1;fillColor=#dae8fc;strokeColor=#6c8ebf;" parent="1" vertex="1">
          <mxGeometry x="265" y="50" width="120" height="60" as="geometry" />
        </mxCell>
        <mxCell id="VTdqCkY_t20LeBBKGg7Y-84" value="Spring Security Filter" style="rounded=0;whiteSpace=wrap;html=1;fillColor=#d5e8d4;strokeColor=#82b366;" parent="1" vertex="1">
          <mxGeometry x="-110" y="500" width="160" height="30" as="geometry" />
        </mxCell>
        <mxCell id="o_C5GEEgWJ_29PUXvW90-10" style="edgeStyle=orthogonalEdgeStyle;rounded=0;orthogonalLoop=1;jettySize=auto;html=1;entryX=0.5;entryY=1;entryDx=0;entryDy=0;" parent="1" source="o_C5GEEgWJ_29PUXvW90-2" target="o_C5GEEgWJ_29PUXvW90-9" edge="1">
          <mxGeometry relative="1" as="geometry" />
        </mxCell>
        <mxCell id="o_C5GEEgWJ_29PUXvW90-24" style="edgeStyle=orthogonalEdgeStyle;rounded=0;orthogonalLoop=1;jettySize=auto;html=1;entryX=1;entryY=0.5;entryDx=0;entryDy=0;exitX=0;exitY=0.5;exitDx=0;exitDy=0;" parent="1" source="o_C5GEEgWJ_29PUXvW90-2" target="o_C5GEEgWJ_29PUXvW90-11" edge="1">
          <mxGeometry relative="1" as="geometry">
            <mxPoint x="10" y="340" as="sourcePoint" />
          </mxGeometry>
        </mxCell>
        <mxCell id="o_C5GEEgWJ_29PUXvW90-36" style="edgeStyle=orthogonalEdgeStyle;rounded=0;orthogonalLoop=1;jettySize=auto;html=1;entryX=0.5;entryY=1;entryDx=0;entryDy=0;" parent="1" source="o_C5GEEgWJ_29PUXvW90-2" target="VTdqCkY_t20LeBBKGg7Y-5" edge="1">
          <mxGeometry relative="1" as="geometry" />
        </mxCell>
        <mxCell id="o_C5GEEgWJ_29PUXvW90-37" style="edgeStyle=orthogonalEdgeStyle;rounded=0;orthogonalLoop=1;jettySize=auto;html=1;entryX=0.5;entryY=1;entryDx=0;entryDy=0;" parent="1" source="o_C5GEEgWJ_29PUXvW90-2" target="VTdqCkY_t20LeBBKGg7Y-9" edge="1">
          <mxGeometry relative="1" as="geometry" />
        </mxCell>
        <mxCell id="o_C5GEEgWJ_29PUXvW90-40" style="edgeStyle=orthogonalEdgeStyle;rounded=0;orthogonalLoop=1;jettySize=auto;html=1;entryX=0;entryY=0.5;entryDx=0;entryDy=0;" parent="1" source="o_C5GEEgWJ_29PUXvW90-2" target="o_C5GEEgWJ_29PUXvW90-30" edge="1">
          <mxGeometry relative="1" as="geometry" />
        </mxCell>
        <mxCell id="o_C5GEEgWJ_29PUXvW90-43" style="edgeStyle=orthogonalEdgeStyle;rounded=0;orthogonalLoop=1;jettySize=auto;html=1;entryX=0.5;entryY=0;entryDx=0;entryDy=0;exitX=0.5;exitY=1;exitDx=0;exitDy=0;" parent="1" source="o_C5GEEgWJ_29PUXvW90-2" target="o_C5GEEgWJ_29PUXvW90-29" edge="1">
          <mxGeometry relative="1" as="geometry">
            <mxPoint x="240" y="380" as="sourcePoint" />
          </mxGeometry>
        </mxCell>
        <mxCell id="o_C5GEEgWJ_29PUXvW90-2" value="/thread" style="rounded=0;whiteSpace=wrap;html=1;fillColor=#f5f5f5;fontColor=#333333;strokeColor=#666666;" parent="1" vertex="1">
          <mxGeometry x="180" y="310" width="120" height="60" as="geometry" />
        </mxCell>
        <mxCell id="o_C5GEEgWJ_29PUXvW90-7" value="/login" style="rounded=1;whiteSpace=wrap;html=1;fillColor=#dae8fc;strokeColor=#6c8ebf;" parent="1" vertex="1">
          <mxGeometry x="95" y="50" width="120" height="60" as="geometry" />
        </mxCell>
        <mxCell id="o_C5GEEgWJ_29PUXvW90-9" value="/account" style="rounded=0;whiteSpace=wrap;html=1;fillColor=#f5f5f5;fontColor=#333333;strokeColor=#666666;" parent="1" vertex="1">
          <mxGeometry x="-90" y="190" width="120" height="60" as="geometry" />
        </mxCell>
        <mxCell id="o_C5GEEgWJ_29PUXvW90-16" style="edgeStyle=orthogonalEdgeStyle;rounded=0;orthogonalLoop=1;jettySize=auto;html=1;entryX=1;entryY=0.5;entryDx=0;entryDy=0;" parent="1" source="o_C5GEEgWJ_29PUXvW90-11" target="o_C5GEEgWJ_29PUXvW90-15" edge="1">
          <mxGeometry relative="1" as="geometry" />
        </mxCell>
        <mxCell id="o_C5GEEgWJ_29PUXvW90-19" style="edgeStyle=orthogonalEdgeStyle;rounded=0;orthogonalLoop=1;jettySize=auto;html=1;" parent="1" source="o_C5GEEgWJ_29PUXvW90-11" target="o_C5GEEgWJ_29PUXvW90-12" edge="1">
          <mxGeometry relative="1" as="geometry" />
        </mxCell>
        <mxCell id="o_C5GEEgWJ_29PUXvW90-23" style="edgeStyle=orthogonalEdgeStyle;rounded=0;orthogonalLoop=1;jettySize=auto;html=1;entryX=0.5;entryY=1;entryDx=0;entryDy=0;" parent="1" source="o_C5GEEgWJ_29PUXvW90-11" target="o_C5GEEgWJ_29PUXvW90-17" edge="1">
          <mxGeometry relative="1" as="geometry" />
        </mxCell>
        <mxCell id="o_C5GEEgWJ_29PUXvW90-27" style="edgeStyle=orthogonalEdgeStyle;rounded=0;orthogonalLoop=1;jettySize=auto;html=1;entryX=0.5;entryY=0;entryDx=0;entryDy=0;" parent="1" source="o_C5GEEgWJ_29PUXvW90-11" target="o_C5GEEgWJ_29PUXvW90-25" edge="1">
          <mxGeometry relative="1" as="geometry" />
        </mxCell>
        <mxCell id="o_C5GEEgWJ_29PUXvW90-28" style="edgeStyle=orthogonalEdgeStyle;rounded=0;orthogonalLoop=1;jettySize=auto;html=1;entryX=0.5;entryY=0;entryDx=0;entryDy=0;" parent="1" source="o_C5GEEgWJ_29PUXvW90-11" target="o_C5GEEgWJ_29PUXvW90-26" edge="1">
          <mxGeometry relative="1" as="geometry" />
        </mxCell>
        <mxCell id="o_C5GEEgWJ_29PUXvW90-11" value="/thread/post&lt;br&gt;/{postId}" style="rounded=0;whiteSpace=wrap;html=1;fillColor=#f5f5f5;fontColor=#333333;strokeColor=#666666;" parent="1" vertex="1">
          <mxGeometry x="-300" y="310" width="140" height="60" as="geometry" />
        </mxCell>
        <mxCell id="o_C5GEEgWJ_29PUXvW90-12" value="/thread/create-post" style="rounded=1;whiteSpace=wrap;html=1;fillColor=#dae8fc;strokeColor=#6c8ebf;" parent="1" vertex="1">
          <mxGeometry x="-350" y="190" width="120" height="60" as="geometry" />
        </mxCell>
        <mxCell id="o_C5GEEgWJ_29PUXvW90-14" value="/thread/update-post" style="rounded=1;whiteSpace=wrap;html=1;fillColor=#dae8fc;strokeColor=#6c8ebf;" parent="1" vertex="1">
          <mxGeometry x="-510" y="190" width="120" height="60" as="geometry" />
        </mxCell>
        <mxCell id="o_C5GEEgWJ_29PUXvW90-20" style="edgeStyle=orthogonalEdgeStyle;rounded=0;orthogonalLoop=1;jettySize=auto;html=1;" parent="1" source="o_C5GEEgWJ_29PUXvW90-15" target="o_C5GEEgWJ_29PUXvW90-14" edge="1">
          <mxGeometry relative="1" as="geometry" />
        </mxCell>
        <mxCell id="o_C5GEEgWJ_29PUXvW90-15" value="/thread/update-post&lt;br&gt;/{postId}" style="rounded=0;whiteSpace=wrap;html=1;fillColor=#f5f5f5;fontColor=#333333;strokeColor=#666666;" parent="1" vertex="1">
          <mxGeometry x="-520" y="310" width="140" height="60" as="geometry" />
        </mxCell>
        <mxCell id="o_C5GEEgWJ_29PUXvW90-17" value="/thread/delete-post" style="rounded=1;whiteSpace=wrap;html=1;fillColor=#dae8fc;strokeColor=#6c8ebf;" parent="1" vertex="1">
          <mxGeometry x="-230" y="190" width="120" height="60" as="geometry" />
        </mxCell>
        <mxCell id="o_C5GEEgWJ_29PUXvW90-25" value="/thread/comment&lt;br&gt;/create-comment/{postId}" style="rounded=1;whiteSpace=wrap;html=1;fillColor=#dae8fc;strokeColor=#6c8ebf;" parent="1" vertex="1">
          <mxGeometry x="-390" y="420" width="160" height="60" as="geometry" />
        </mxCell>
        <mxCell id="o_C5GEEgWJ_29PUXvW90-26" value="/thread/comment&lt;br&gt;/create-comment/{postId}" style="rounded=1;whiteSpace=wrap;html=1;fillColor=#dae8fc;strokeColor=#6c8ebf;" parent="1" vertex="1">
          <mxGeometry x="-230" y="420" width="160" height="60" as="geometry" />
        </mxCell>
        <mxCell id="o_C5GEEgWJ_29PUXvW90-44" style="edgeStyle=orthogonalEdgeStyle;rounded=0;orthogonalLoop=1;jettySize=auto;html=1;entryX=0.5;entryY=0;entryDx=0;entryDy=0;" parent="1" source="o_C5GEEgWJ_29PUXvW90-29" target="o_C5GEEgWJ_29PUXvW90-31" edge="1">
          <mxGeometry relative="1" as="geometry" />
        </mxCell>
        <mxCell id="o_C5GEEgWJ_29PUXvW90-45" style="edgeStyle=orthogonalEdgeStyle;rounded=0;orthogonalLoop=1;jettySize=auto;html=1;entryX=0.5;entryY=0;entryDx=0;entryDy=0;" parent="1" source="o_C5GEEgWJ_29PUXvW90-29" target="o_C5GEEgWJ_29PUXvW90-32" edge="1">
          <mxGeometry relative="1" as="geometry" />
        </mxCell>
        <mxCell id="o_C5GEEgWJ_29PUXvW90-29" value="/admin/account" style="rounded=0;whiteSpace=wrap;html=1;fillColor=#f5f5f5;fontColor=#333333;strokeColor=#666666;" parent="1" vertex="1">
          <mxGeometry x="180" y="440" width="120" height="60" as="geometry" />
        </mxCell>
        <mxCell id="o_C5GEEgWJ_29PUXvW90-41" style="edgeStyle=orthogonalEdgeStyle;rounded=0;orthogonalLoop=1;jettySize=auto;html=1;entryX=0;entryY=0.5;entryDx=0;entryDy=0;" parent="1" source="o_C5GEEgWJ_29PUXvW90-30" target="o_C5GEEgWJ_29PUXvW90-33" edge="1">
          <mxGeometry relative="1" as="geometry" />
        </mxCell>
        <mxCell id="o_C5GEEgWJ_29PUXvW90-30" value="/admin/role" style="rounded=0;whiteSpace=wrap;html=1;fillColor=#f5f5f5;fontColor=#333333;strokeColor=#666666;" parent="1" vertex="1">
          <mxGeometry x="369.99999999999994" y="310" width="120" height="60" as="geometry" />
        </mxCell>
        <mxCell id="o_C5GEEgWJ_29PUXvW90-31" value="/account/update-account" style="rounded=1;whiteSpace=wrap;html=1;fillColor=#dae8fc;strokeColor=#6c8ebf;" parent="1" vertex="1">
          <mxGeometry x="70" y="540" width="170" height="60" as="geometry" />
        </mxCell>
        <mxCell id="o_C5GEEgWJ_29PUXvW90-32" value="/account/delete-account" style="rounded=1;whiteSpace=wrap;html=1;fillColor=#dae8fc;strokeColor=#6c8ebf;" parent="1" vertex="1">
          <mxGeometry x="240" y="540" width="170" height="60" as="geometry" />
        </mxCell>
        <mxCell id="o_C5GEEgWJ_29PUXvW90-42" style="edgeStyle=orthogonalEdgeStyle;rounded=0;orthogonalLoop=1;jettySize=auto;html=1;entryX=0;entryY=0.5;entryDx=0;entryDy=0;" parent="1" source="o_C5GEEgWJ_29PUXvW90-33" target="o_C5GEEgWJ_29PUXvW90-34" edge="1">
          <mxGeometry relative="1" as="geometry" />
        </mxCell>
        <mxCell id="o_C5GEEgWJ_29PUXvW90-33" value="/admin/role&lt;br&gt;/{accountId}" style="rounded=0;whiteSpace=wrap;html=1;fillColor=#f5f5f5;fontColor=#333333;strokeColor=#666666;" parent="1" vertex="1">
          <mxGeometry x="530" y="310" width="120" height="60" as="geometry" />
        </mxCell>
        <mxCell id="o_C5GEEgWJ_29PUXvW90-34" value="/account/role" style="rounded=1;whiteSpace=wrap;html=1;fillColor=#dae8fc;strokeColor=#6c8ebf;" parent="1" vertex="1">
          <mxGeometry x="680" y="310" width="170" height="60" as="geometry" />
        </mxCell>
        <mxCell id="o_C5GEEgWJ_29PUXvW90-38" value="" style="edgeStyle=orthogonalEdgeStyle;rounded=0;orthogonalLoop=1;jettySize=auto;html=1;" parent="1" source="VTdqCkY_t20LeBBKGg7Y-9" target="VTdqCkY_t20LeBBKGg7Y-49" edge="1">
          <mxGeometry relative="1" as="geometry" />
        </mxCell>
        <mxCell id="VTdqCkY_t20LeBBKGg7Y-9" value="/register" style="rounded=0;whiteSpace=wrap;html=1;fillColor=#f5f5f5;fontColor=#333333;strokeColor=#666666;" parent="1" vertex="1">
          <mxGeometry x="265" y="170" width="120" height="60" as="geometry" />
        </mxCell>
        <mxCell id="o_C5GEEgWJ_29PUXvW90-48" value="Spring Security Filter" style="rounded=0;whiteSpace=wrap;html=1;fillColor=#d5e8d4;strokeColor=#82b366;" parent="1" vertex="1">
          <mxGeometry x="260" y="620" width="160" height="30" as="geometry" />
        </mxCell>
        <mxCell id="o_C5GEEgWJ_29PUXvW90-49" value="Spring Security Filter" style="rounded=0;whiteSpace=wrap;html=1;fillColor=#d5e8d4;strokeColor=#82b366;" parent="1" vertex="1">
          <mxGeometry x="700" y="400" width="160" height="30" as="geometry" />
        </mxCell>
        <mxCell id="o_C5GEEgWJ_29PUXvW90-50" value="ROLE_USER" style="rounded=0;whiteSpace=wrap;html=1;fillColor=#ffe6cc;strokeColor=#d79b00;" parent="1" vertex="1">
          <mxGeometry x="-540" y="130" width="120" height="40" as="geometry" />
        </mxCell>
        <mxCell id="o_C5GEEgWJ_29PUXvW90-51" value="ROLE_MANAGER" style="rounded=0;whiteSpace=wrap;html=1;fillColor=#fff2cc;strokeColor=#d6b656;" parent="1" vertex="1">
          <mxGeometry x="60" y="380" width="120" height="40" as="geometry" />
        </mxCell>
        <mxCell id="o_C5GEEgWJ_29PUXvW90-52" value="ROLE_ADMIN" style="rounded=0;whiteSpace=wrap;html=1;fillColor=#f8cecc;strokeColor=#b85450;" parent="1" vertex="1">
          <mxGeometry x="350" y="240" width="120" height="40" as="geometry" />
        </mxCell>
        <mxCell id="o_C5GEEgWJ_29PUXvW90-55" value="" style="rounded=0;whiteSpace=wrap;html=1;fillColor=#ffe6cc;strokeColor=#d79b00;" parent="1" vertex="1">
          <mxGeometry x="700" y="550" width="120" height="40" as="geometry" />
        </mxCell>
        <mxCell id="o_C5GEEgWJ_29PUXvW90-58" value="ROLE_AMDIN" style="text;html=1;strokeColor=none;fillColor=none;align=center;verticalAlign=middle;whiteSpace=wrap;rounded=0;" parent="1" vertex="1">
          <mxGeometry x="710" y="490" width="100" height="30" as="geometry" />
        </mxCell>
        <mxCell id="o_C5GEEgWJ_29PUXvW90-59" value="ROLE_MANAGER" style="text;html=1;strokeColor=none;fillColor=none;align=center;verticalAlign=middle;whiteSpace=wrap;rounded=0;" parent="1" vertex="1">
          <mxGeometry x="710" y="520" width="100" height="30" as="geometry" />
        </mxCell>
        <mxCell id="o_C5GEEgWJ_29PUXvW90-60" value="ROLE_USER" style="text;html=1;strokeColor=none;fillColor=none;align=center;verticalAlign=middle;whiteSpace=wrap;rounded=0;" parent="1" vertex="1">
          <mxGeometry x="710" y="555" width="100" height="30" as="geometry" />
        </mxCell>
        <mxCell id="o_C5GEEgWJ_29PUXvW90-61" value="권한 관계" style="swimlane;whiteSpace=wrap;html=1;" parent="1" vertex="1">
          <mxGeometry x="650" y="450" width="220" height="180" as="geometry" />
        </mxCell>
        <mxCell id="o_C5GEEgWJ_29PUXvW90-62" value="요청 블럭" style="swimlane;whiteSpace=wrap;html=1;" parent="1" vertex="1">
          <mxGeometry x="490" y="450" width="140" height="180" as="geometry" />
        </mxCell>
      </root>
    </mxGraphModel>
  </diagram>
</mxfile>
